:version 1.10
:name ASF
:units
  mass 1
  length 1
  angle deg
:documentation
  ASF file generated by Kaydara
:root
  axis xyz
  order  tx ty tz rx ry rz
  position 0 0 0
  orientation 0 0 0
:bonedata
  begin
    id 1
    name RightUpLegDummy
    direction -0.718183 -0.695806 0.00816078
    length 4.904
    axis 0 0 0 xyz
  end
  begin
    id 2
    name RightUpLeg
    direction 3.53373e-006 -0.995788 0.0916898
    length 17.4976
    axis -3.49089 -0.000906625 0.000286804 xyz
    dof rx ry rz
  end
  begin
    id 3
    name RightLeg
    direction 0.00371092 -0.995096 -0.0988419
    length 16.5821
    axis 3.68512 0.0193738 -0.131023 xyz
    dof rx ry rz
  end
  begin
    id 4
    name RightFoot
    direction 0.00079151 -0.46099 0.887405
    length 3.77069
    axis 4.81691e-005 -0.120479 -0.188788 xyz
    dof rx ry rz
  end
  begin
    id 5
    name RightToes
    direction 0.00124746 -0.014064 0.9999
    length 3.85082
    axis 0.000481921 0.542163 -0.142578 xyz
    dof rx ry rz
  end
  begin
    id 6
    name SpineDummy
    direction 8.3039e-015 1 4.57515e-016
    length 4.6813
    axis 0 0 0 xyz
  end
  begin
    id 7
    name Spine
    direction -3.15643e-008 0.999988 0.00495137
    length 10.1015
    axis -0.001389 0.000121418 2.40972e-006 xyz
    dof rx ry rz
  end
  begin
    id 8
    name Spine1
    direction 0 0 0
    length 0
    axis -0.001389 0.000121451 1.30017e-006 xyz
    dof rx ry rz
  end
  begin
    id 9
    name HEadDummy
    direction -1.99912e-008 0.999999 0.00127422
    length 3.43865
    axis -0.001389 0.000121451 1.30017e-006 xyz
  end
  begin
    id 10
    name HEad
    direction -0.0222688 0.980941 0.193023
    length 5.12695
    axis -0.001389 0.000121451 1.30017e-006 xyz
    dof rx ry rz
  end
  begin
    id 11
    name LeftShoulder1Dummy
    direction 0.998891 -0.0402509 -0.0244456
    length 3.5433
    axis -0.001389 0.000121451 1.30017e-006 xyz
  end
  begin
    id 12
    name LeftShoulder1
    direction 0.99951 -0.000327763 0.0313091
    length 4.05031
    axis -0.001389 0.000121451 1.30017e-006 xyz
    dof rx ry rz
  end
  begin
    id 13
    name LeftArm
    direction 0.998561 -0.00100056 -0.0536182
    length 10.3537
    axis -23.1894 0.134784 0.967509 xyz
    dof rx ry rz
  end
  begin
    id 14
    name LeftForeArm
    direction 0.998903 0.00866432 0.046012
    length 8.70632
    axis -9.91835 -0.06569 -0.177794 xyz
    dof rx ry rz
  end
  begin
    id 15
    name LeftHand
    direction 0.992938 -0.0411637 0.11126
    length 5.32135
    axis -0.00960232 -0.00340091 0.185173 xyz
    dof rx ry rz
  end
  begin
    id 16
    name RightShoulderDummy
    direction -0.998891 -0.0402509 -0.0244414
    length 3.5433
    axis -0.001389 0.000121451 1.30017e-006 xyz
  end
  begin
    id 17
    name RightShoulder
    direction -0.99951 -0.000327807 0.0313133
    length 4.05031
    axis 0.215806 0.000203643 -0.0068026 xyz
    dof rx ry rz
  end
  begin
    id 18
    name RightArm
    direction -0.998573 -0.000999564 -0.053403
    length 10.3947
    axis -23.2009 -0.134239 -0.964101 xyz
    dof rx ry rz
  end
  begin
    id 19
    name RightForeArm
    direction -0.998898 0.00868028 0.0461306
    length 8.68355
    axis -9.92322 0.0658061 0.178868 xyz
    dof rx ry rz
  end
  begin
    id 20
    name RightHand
    direction -0.992843 -0.0414603 0.112003
    length 5.28593
    axis -0.00960638 0.00330671 -0.185228 xyz
    dof rx ry rz
  end
  begin
    id 21
    name LeftUpLegDummy
    direction 0.718183 -0.695806 0.00816078
    length 4.904
    axis 0 0 0 xyz
  end
  begin
    id 22
    name LeftUpLeg
    direction -6.81752e-006 -0.995793 0.0916337
    length 17.4976
    axis -3.48766 0.00143442 -0.000524262 xyz
    dof rx ry rz
  end
  begin
    id 23
    name LeftLeg
    direction -0.00601358 -0.995091 -0.0987824
    length 16.5821
    axis 3.68178 -0.00654042 -0.000285133 xyz
    dof rx ry rz
  end
  begin
    id 24
    name LeftFoot
    direction -0.00417578 -0.460984 0.887399
    length 3.77069
    axis 1.87233e-006 4.66016e-005 -8.6538e-006 xyz
    dof rx ry rz
  end
  begin
    id 25
    name LeftToes
    direction 0.00818058 -0.00485161 0.999955
    length 3.85048
    axis 1.06247e-005 4.65869e-005 -8.65513e-006 xyz
    dof rx ry rz
  end
:hierarchy
  begin
    root RightUpLegDummy SpineDummy LeftUpLegDummy
    RightUpLegDummy RightUpLeg
    RightUpLeg RightLeg
    RightLeg RightFoot
    RightFoot RightToes
    SpineDummy Spine
    Spine Spine1
    Spine1 HEadDummy LeftShoulder1Dummy RightShoulderDummy
    HEadDummy HEad
    LeftShoulder1Dummy LeftShoulder1
    LeftShoulder1 LeftArm
    LeftArm LeftForeArm
    LeftForeArm LeftHand
    RightShoulderDummy RightShoulder
    RightShoulder RightArm
    RightArm RightForeArm
    RightForeArm RightHand
    LeftUpLegDummy LeftUpLeg
    LeftUpLeg LeftLeg
    LeftLeg LeftFoot
    LeftFoot LeftToes
  end

:SAMPLES-PER-SECOND 30
:FRAME-RANGE 1-2775
:FULLY-SPECIFIED
:DEGREES
1
root  -60.1609 40.1961 -30.7261 -3.3832 77.844 -3.00492
RightUpLeg  3.0766 -4.33239 -2.13951
RightLeg  -0.669902 -5.09228 0.00952634
RightFoot  -2.20933 -0.509353 6.2155
RightToes  -5.28216e-011 1.2921e-014 -6.02303e-014
Spine  -1.5345 0.467277 3.25673
Spine1  2.11689 0.88616 -2.31216
HEad  1.04284 4.37817 -4.40756
LeftShoulder1  1.3939 -0.0809443 -32.9481
LeftArm  26.6642 9.35491 -34.5939
LeftForeArm  -3.30473 -13.2034 -13.9152
LeftHand  0.219532 0.706075 -5.40293
RightShoulder  7.89186 9.43504 53.3478
RightArm  15.0156 1.7769 15.0702
RightForeArm  19.8402 -0.659094 17.6132
RightHand  0.430954 5.02987 4.48777
LeftUpLeg  5.55782 10.7526 9.25441
LeftLeg  -2.02249 14.6142 -2.03669
LeftFoot  0.291677 0.939972 -9.31013
LeftToes  -2.158e-010 -1.26819e-010 -1.05346e-011
2
root  -60.1828 40.1942 -30.7261 -3.45811 77.8793 -3.07759
RightUpLeg  3.02519 -4.31169 -2.10309
RightLeg  -0.619935 -5.08404 -0.00404168
RightFoot  -2.20304 -0.507303 6.18362
RightToes  -5.28216e-011 1.2921e-014 -6.02303e-014
Spine  -1.55697 0.456834 3.24075
Spine1  2.1774 0.88616 -2.33726
HEad  0.901669 4.22893 -4.29225
LeftShoulder1  1.3939 -0.0684047 -32.9481
LeftArm  26.3083 9.37556 -34.6255
LeftForeArm  -2.95091 -13.1113 -13.9499
LeftHand  0.218037 0.757237 -5.32245
RightShoulder  7.92909 9.46516 53.4697
RightArm  15.3208 1.75515 15.0683
RightForeArm  19.5075 -0.480983 17.6236
RightHand  0.420691 4.99648 4.38996
LeftUpLeg  5.49195 10.7757 9.27519
LeftLeg  -1.96995 14.5884 -2.03322
LeftFoot  0.279021 0.937635 -9.27333
LeftToes  -2.158e-010 -1.26819e-010 -1.05346e-011
3
root  -60.2056 40.1922 -30.7261 -3.4721 77.9075 -3.08063
RightUpLeg  2.97397 -4.32531 -2.1085
RightLeg  -0.55381 -5.08875 0.0145919
RightFoot  -2.21845 -0.508213 6.19778
RightToes  -5.28216e-011 1.2921e-014 -6.02303e-014
Spine  -1.53246 0.45653 3.19791
Spine1  2.17 0.887782 -2.3401
HEad  0.889067 4.01502 -4.12234
LeftShoulder1  1.3939 -0.0493554 -32.9481
LeftArm  25.6153 9.38011 -34.5926
LeftForeArm  -2.26836 -12.8531 -14.0772
LeftHand  0.22091 0.573355 -5.45119
RightShoulder  7.97505 9.51213 53.5806
RightArm  14.8305 1.72222 15.0329
RightForeArm  20.0446 -0.664078 17.5807
RightHand  0.432573 5.10585 4.46837
LeftUpLeg  5.40482 10.7947 9.29421
LeftLeg  -1.83706 14.5035 -2.02182
LeftFoot  0.247338 0.935726 -9.24327
LeftToes  -2.158e-010 -1.26819e-010 -1.05346e-011
4
root  -60.2286 40.187 -30.7242 -3.41673 77.9253 -3.0284
RightUpLeg  2.87466 -4.32935 -2.10912
RightLeg  -0.423068 -5.11531 0.00734027
RightFoot  -2.2916 -0.514848 6.30097
RightToes  -5.28216e-011 1.2921e-014 -6.02303e-014
Spine  -1.51578 0.464011 3.14083
Spine1  2.15696 0.89778 -2.34651
HEad  0.902048 3.83546 -4.01903
LeftShoulder1  1.3939 -0.048463 -32.9481
LeftArm  26.1752 9.45473 -34.5314
LeftForeArm  -2.86953 -13.0591 -13.9803
LeftHand  0.220256 0.613769 -5.42134
RightShoulder  7.73619 9.08321 53.7414
RightArm  16.9873 2.29243 15.0068
RightForeArm  18.1309 -0.190402 17.8257
RightHand  0.419776 4.97485 4.39027
LeftUpLeg  5.29579 10.8361 9.30848
LeftLeg  -1.69883 14.4633 -2.02577
LeftFoot  0.217101 0.936086 -9.24895
LeftToes  -2.158e-010 -1.26819e-010 -1.05346e-011
5
root  -60.2502 40.1869 -30.7167 -3.42654 77.9316 -3.00588
RightUpLeg  2.81711 -4.34153 -2.10722
RightLeg  -0.282508 -5.08804 0.0205798
RightFoot  -2.36721 -0.501497 6.17798
RightToes  -5.28216e-011 1.2921e-014 -6.02303e-014
Spine  -1.47147 0.459687 3.07985
Spine1  2.1839 0.89271 -2.32473
HEad  0.92771 3.66628 -3.93587
LeftShoulder1  1.3939 -0.0446519 -32.945
LeftArm  25.6382 9.487 -34.5189
LeftForeArm  -2.35481 -12.8735 -14.0686
LeftHand  0.220089 0.638614 -5.41801
RightShoulder  7.77819 9.12717 53.8404
RightArm  18.0131 2.14994 14.9294
RightForeArm  17.1273 0.405416 17.8434
RightHand  0.418409 4.9556 4.38437
LeftUpLeg  5.33047 10.9698 9.40992
LeftLeg  -1.71461 14.2543 -2.1609
LeftFoot  0.206811 0.927419 -9.17133
LeftToes  -2.158e-010 -1.26819e-010 -1.05346e-011
6
root  -60.2754 40.1851 -30.7081 -3.39904 77.992 -2.93186
RightUpLeg  2.79006 -4.45594 -2.16763
RightLeg  -0.16213 -5.04632 0.121346
RightFoot  -2.48962 -0.493591 6.15101
RightToes  -5.28216e-011 1.2921e-014 -6.02303e-014
Spine  -1.35807 0.427195 2.96927
Spine1  2.18836 0.854506 -2.27646
HEad  0.950996 3.54778 -3.82704
LeftShoulder1  1.3939 -0.0493877 -32.9528
LeftArm  25.8853 9.45595 -34.4543
LeftForeArm  -2.53207 -12.8419 -14.1172
LeftHand  0.220224 0.634997 -5.42553
RightShoulder  7.77092 9.10471 53.884
RightArm  20.9784 1.95539 14.8766
RightForeArm  13.983 1.9085 17.8875
RightHand  0.410272 4.73631 4.40056
LeftUpLeg  5.35957 11.2644 9.60705
LeftLeg  -1.69962 13.8885 -2.44906
LeftFoot  0.235857 0.907325 -8.95274
LeftToes  -2.158e-010 -1.26819e-010 -1.05346e-011
7
root  -60.3114 40.1707 -30.6916 -3.63479 78.0354 -3.18895
RightUpLeg  2.51541 -4.56933 -2.17245
RightLeg  0.320033 -4.9463 0.26168
RightFoot  -2.8815 -0.469632 6.07753
RightToes  -5.28216e-011 1.2921e-014 -6.02303e-014
Spine  -1.17688 0.399489 2.89489
Spine1  2.09057 0.804505 -2.16889
HEad  0.907169 3.45087 -3.78106
LeftShoulder1  1.3939 -0.0576578 -32.9831
LeftArm  25.7506 9.36293 -34.3994
LeftForeArm  -2.334 -12.6314 -14.2613
LeftHand  0.222277 0.618783 -5.55009
RightShoulder  7.73398 9.05584 53.8388
RightArm  16.4516 2.14207 14.9818
RightForeArm  18.2493 0.0595715 17.7105
RightHand  0.434293 5.01656 4.53148
LeftUpLeg  5.11059 11.6269 9.8954
LeftLeg  -1.22 13.4073 -2.63926
LeftFoot  -0.0607275 0.87651 -8.86035
LeftToes  -2.158e-010 -1.26819e-010 -1.05346e-011
8
root  -60.3553 40.1308 -30.6603 -3.80819 77.8286 -3.43812
RightUpLeg  1.62462 -4.30134 -1.94351
RightLeg  1.84619 -5.03311 0.0335932
RightFoot  -3.78503 -0.430123 6.116
RightToes  -5.28216e-011 1.2921e-014 -6.02303e-014
Spine  -0.94051 0.473607 2.92808
Spine1  1.9283 0.880375 -2.22972
HEad  0.92687 3.37688 -3.67781
LeftShoulder1  1.3939 -0.066637 -32.9838
LeftArm  25.7661 9.24976 -34.3368
LeftForeArm  -2.46512 -12.4914 -14.3764
LeftHand  0.216813 0.674775 -5.48922
RightShoulder  7.73261 9.07987 53.7313
RightArm  15.96 1.95727 15.0237
RightForeArm  18.3403 0.248688 17.6139
RightHand  0.440511 5.01901 4.59939
LeftUpLeg  4.58497 12.065 10.2453
LeftLeg  -0.147785 13.0793 -2.71787
LeftFoot  -0.665804 0.848197 -9.02355
LeftToes  -2.158e-010 -1.26819e-010 -1.05346e-011
